<svg width="65" height="32" viewBox="0 0 65 32" fill="none" xmlns="http://www.w3.org/2000/svg">
<rect x="0.00012207" y="0.884888" width="30.2302" height="30.2302" rx="8.34714" fill="#B8FF0D"/>
<path d="M6.15559 20.7258L19.9885 7.32177C20.3018 7.01819 20.8098 7.01819 21.123 7.32177L24.0716 10.1789C24.3849 10.4824 24.3849 10.9746 24.0716 11.2782L10.2386 24.6822C9.92534 24.9858 9.4174 24.9858 9.10411 24.6822L6.15559 21.8251C5.8423 21.5215 5.8423 21.0294 6.15559 20.7258Z" fill="#101113"/>
<path d="M11.5987 15.4538L14.5472 12.5967C14.8605 12.2931 15.3685 12.2931 15.6818 12.5967L24.0743 20.729C24.3876 21.0326 24.3876 21.5248 24.0743 21.8283L21.1258 24.6854C20.8125 24.989 20.3046 24.989 19.9913 24.6854L11.5987 16.5531C11.2854 16.2495 11.2854 15.7573 11.5987 15.4538Z" fill="#101113"/>
<path d="M6.15268 10.1789L9.1012 7.32177C9.41449 7.01819 9.92243 7.01819 10.2357 7.32177L13.1842 10.1789C13.4975 10.4824 13.4975 10.9746 13.1842 11.2782L10.2357 14.1353C9.92243 14.4389 9.41449 14.4389 9.1012 14.1353L6.15268 11.2782C5.83939 10.9746 5.83939 10.4824 6.15268 10.1789Z" fill="#101113"/>
<path d="M65.0002 11.2737H60.7416V24.5418H56.4092V11.2737H52.1506V7.45825H65.0002V11.2737Z" fill="#FAFAFA"/>
<path d="M39.8413 15.8524L34.8935 7.45837H39.9643L43.0167 13.2185H43.1644L46.2168 7.45837H51.3123L46.2907 15.7047L51.4846 24.5419H46.266L43.1152 18.5356H42.9675L39.669 24.5419H34.5488L39.8413 15.8524Z" fill="#FAFAFA"/>
</svg>
