<svg width="50" height="24" viewBox="0 0 50 24" fill="none" xmlns="http://www.w3.org/2000/svg">
<g clip-path="url(#clip0_832_451)">
<path d="M31.5679 16.3414L35.7526 10.5717V12.2123L31.7485 6.60938H34.3068L37.0735 10.5161L36.0029 10.53L38.728 6.60938H41.1748L37.1988 12.1149V10.5022L41.4113 16.3414H38.8115L35.9475 12.2123H36.9762L34.1538 16.3414H31.5679ZM44.2001 16.3414V8.44458H41.0859V6.60938H49.5665V8.44458H46.4524V16.3414H44.2001Z" fill="#FFBE40"/>
<path d="M0.587966 18.0422L18.107 0.52311C18.5038 0.126336 19.1471 0.126336 19.5439 0.52311L23.2781 4.25733C23.6749 4.65411 23.6749 5.2974 23.2781 5.69418L5.75903 23.2132C5.36226 23.61 4.71896 23.61 4.32219 23.2132L0.587966 19.479C0.191192 19.0822 0.191194 18.4389 0.587966 18.0422Z" fill="#FFBE40"/>
<path d="M7.48158 11.1519L11.2158 7.41764C11.6126 7.02087 12.2559 7.02087 12.6526 7.41764L23.2816 18.0466C23.6784 18.4434 23.6784 19.0867 23.2816 19.4834L19.5474 23.2177C19.1506 23.6144 18.5073 23.6144 18.1105 23.2177L7.48158 12.5887C7.0848 12.1919 7.0848 11.5486 7.48158 11.1519Z" fill="#FFBE40"/>
<path d="M0.583389 4.25733L4.31761 0.52311C4.71439 0.126336 5.35768 0.126336 5.75446 0.52311L9.48868 4.25733C9.88545 4.65411 9.88545 5.2974 9.48868 5.69418L5.75446 9.4284C5.35768 9.82517 4.71439 9.82517 4.31761 9.4284L0.583389 5.69418C0.186616 5.2974 0.186616 4.65411 0.583389 4.25733Z" fill="#FFBE40"/>
</g>
<defs>
<clipPath id="clip0_832_451">
<rect width="50" height="24" fill="white"/>
</clipPath>
</defs>
</svg>
